<?xml version="1.0" encoding="utf-8" ?>
<svg baseProfile="full" height="200mm" version="1.1" viewBox="0,0,200,200" width="200mm" xmlns="http://www.w3.org/2000/svg" xmlns:ev="http://www.w3.org/2001/xml-events" xmlns:xlink="http://www.w3.org/1999/xlink"><defs /><rect fill="#1a1a1a" height="200" width="200" x="0" y="0" /><text alignment-baseline="middle" fill="#e1ed5e" style="dominant-baseline: central; font-size:9.0px; font-family:Arial;" text-anchor="middle" x="100.0" y="100.0">2023</text><line stroke="#e1ed5e" stroke-width="0.3" x1="100.0" x2="100.0" y1="15.0" y2="10.0" /><path d="M 100.0 14.0 a86.0,86.0 0 0,1 42.46469731375804,11.215312516191453" fill="none" id="id85" stroke="none" /><text fill="#e1ed5e" style="font-size:6.75px; font-family:Arial;" text-anchor="middle"><textPath startOffset="22.20632615414155" xlink:href="#id85">January</textPath></text><line stroke="#e1ed5e" stroke-width="0.3" x1="143.23703022742887" x2="145.7803849466894" y1="26.81831364943548" y2="22.513508569990506" /><path d="M 143.74570117128098 25.957352633546492 a86.0,86.0 0 0,1 28.547481713284135,27.462654790039103" fill="none" id="id86" stroke="none" /><text fill="#e1ed5e" style="font-size:6.75px; font-family:Arial;" text-anchor="middle"><textPath startOffset="19.985693538727396" xlink:href="#id86">February</textPath></text><line stroke="#e1ed5e" stroke-width="0.3" x1="172.23445277983987" x2="176.4835382374775" y1="55.19839476539836" y2="52.563006222186495" /><path d="M 173.08426987136738 54.67131705675599 a86.0,86.0 0 0,1 12.851231095245387,41.99856678651699" fill="none" id="id87" stroke="none" /><text fill="#e1ed5e" style="font-size:6.75px; font-family:Arial;" text-anchor="middle"><textPath startOffset="22.20632615414155" xlink:href="#id87">March</textPath></text><path d="M 118.56541770881063 90.18545643968196 l 8.667634450928759 -4.582114834032652 a30.804267607893472,30.804267607893472 0 0,0 0.24377993784968013,0.47090524632980385 l -8.745223821938556 4.432236865442503" fill="#ff700a" stroke="none" /><path d="M 119.47837535516314 92.15188598940014 l 29.744757308762026 -11.984585075516042 a53.06837798812771,53.06837798812771 0 0,0 0.3340943746355463,0.8502337420320104 l -29.94664523327927 11.470802328588247" fill="#7cff26" stroke="none" /><path d="M 119.7369772167798 92.82701384747503 l 13.003035976734251 -4.725677897758468 a34.83513556874699,34.83513556874699 0 0,0 0.1999651558278606,0.5653284231228399 l -13.082454213371921 4.501151848209013" fill="#ffa70f" stroke="none" /><path d="M 120.28053869075195 94.5502522615342 l 37.86900099742651 -10.17608583729549 a60.21242098507941,60.21242098507941 0 0,0 0.26035755678165584,1.0032638728112713 l -38.03855488607847 9.522725538935369" fill="#32ff2f" stroke="none" /><path d="M 120.91429891909075 98.10471618934814 l 9.072101439679782 -0.8221268641963196 a30.109276431894756,30.109276431894756 0 0,0 0.042332948974914957,0.5165692029217053 l -9.084908872474193 0.6658437440668455" fill="#ff6709" stroke="none" /><path d="M 120.94382443527127 98.46500227214037 l 9.226976078815163 -0.6762560180815905 a30.251724691159957,30.251724691159957 0 0,0 0.03359296861404671,0.5196683558594573 l -9.237249638433624 0.5173285979690981" fill="#ff6909" stroke="none" /><path d="M 120.96714384426684 98.82574320788733 l 18.478939615367874 -1.0349058753807738 a39.50789667896679,39.50789667896679 0 0,0 0.03218274087909283,0.6793267948314752 l -18.494015964480464 0.7166679739262989" fill="#ffe315" stroke="none" /><line stroke="#e1ed5e" stroke-width="0.3" x1="184.98032266829074" x2="189.97916517819016" y1="98.17113171792111" y2="98.06355123074" /><path d="M 185.9800911702706 98.14961562048488 a86.0,86.0 0 0,1 -9.607161424134198,41.387399972396054" fill="none" id="id88" stroke="none" /><text fill="#e1ed5e" style="font-size:6.75px; font-family:Arial;" text-anchor="middle"><textPath startOffset="21.466115282336823" xlink:href="#id88">April</textPath></text><path d="M 120.99513854157772 99.54816195383933 l 46.49623195718708 -1.0006491054947741 a67.50699823519975,67.50699823519975 0 0,0 0.01500260382228886,1.1619681994857638 l -46.50656756812708 0.20014464794854764" fill="#38ff82" stroke="none" /><path d="M 120.99980553446 99.90962569577887 l 7.617407400141502 -0.03278210803557225 a28.617477939996792,28.617477939996792 0 0,0 -0.002120013714230511,0.4926165253820944 l -7.6168430891377685 -0.09834389555020687" fill="#ff5207" stroke="none" /><path d="M 120.9764740272857 100.99374915477107 l 49.99198905696808 2.3683435455388926 a71.04805711535376,71.04805711535376 0 0,0 -0.0683876426977399,1.2211073005879736 l -49.94381506338281 -3.2285225624622895" fill="#3dffaa" stroke="none" /><path d="M 120.89721153311464 102.0752229133903 l 49.39158034748035 4.90489073641359 a70.6345259104765,70.6345259104765 0 0,0 -0.13056522525757217,1.2088718292452028 l -49.299832820721726 -5.754358887543583" fill="#3cffa5" stroke="none" /><path d="M 120.64145759157962 103.86396538481128 l 1.9430059358465588 0.36371984126046447 a22.976755976255415,22.976755976255415 0 0,0 -0.07611878348904282,0.38812803709934135 l -1.9364572193818517 -0.39711160542775076" fill="#ff0000" stroke="none" /><path d="M 120.41448212921028 104.9243191809786 l 26.68883210753985 6.437798766250656 a48.454307716990215,48.454307716990215 0 0,0 -0.20255904720082196,0.8091227036962091 l -26.574061746043967 -6.8962493093442605" fill="#afff20" stroke="none" /><path d="M 119.79798401119884 107.00284435728193 l 26.700819694307693 9.444481035307307 a49.321934862826886,49.321934862826886 0 0,0 -0.29000296932569625,0.7979636202650257 l -26.534292463976772 -9.902692452578464" fill="#a5ff21" stroke="none" /><line stroke="#e1ed5e" stroke-width="0.3" x1="174.80103733775053" x2="179.2010983576182" y1="140.37084112569926" y2="142.7455964860345" /><path d="M 175.68104954172406 140.8457921977663 a86.0,86.0 0 0,1 -30.038265399797805,32.042727171017184" fill="none" id="id89" stroke="none" /><text fill="#e1ed5e" style="font-size:6.75px; font-family:Arial;" text-anchor="middle"><textPath startOffset="22.206326154141568" xlink:href="#id89">May</textPath></text><path d="M 112.04921762599082 117.19931262002967 l 10.252989159166155 14.635337439493949 a38.869440077009465,38.869440077009465 0 0,0 -0.5512854821666978,0.3791791815236635 l -9.999546792376574 -14.809657410382707" fill="#ffdb14" stroke="none" /><line stroke="#e1ed5e" stroke-width="0.3" x1="143.8653032363475" x2="146.44561519142675" y1="172.8068346515853" y2="177.08958963109032" /><path d="M 144.38136562736335 173.6633856474863 a86.0,86.0 0 0,1 -40.68145358897372,12.25698825130547" fill="none" id="id90" stroke="none" /><text fill="#e1ed5e" style="font-size:6.75px; font-family:Arial;" text-anchor="middle"><textPath startOffset="21.466115282336833" xlink:href="#id90">June</textPath></text><path d="M 109.89434966115114 118.52300852407294 l 29.683048983453418 55.56902557221878 a84.0,84.0 0 0,0 -1.2812363898940176,0.6702823242211329 l -28.722121691032903 -56.07173731538463" fill="#4dd2ff" stroke="none" /><line stroke="#e1ed5e" stroke-width="0.3" x1="102.19456741930631" x2="102.32365962044197" y1="184.97166512339345" y2="189.96999836594603" /><path d="M 102.22038585953345 185.97133177190398 a86.0,86.0 0 0,1 -42.740103519485714,-10.115201625700543" fill="none" id="id91" stroke="none" /><text fill="#e1ed5e" style="font-size:6.75px; font-family:Arial;" text-anchor="middle"><textPath startOffset="22.20632615414155" xlink:href="#id91">July</textPath></text><line stroke="#e1ed5e" stroke-width="0.3" x1="58.666819895761336" x2="56.23545636021788" y1="174.27360380694188" y2="178.64263932499728" /><path d="M 58.180547188652646 175.14741091055294 a86.0,86.0 0 0,1 -31.652253787137756,-30.449443065178592" fill="none" id="id92" stroke="none" /><text fill="#e1ed5e" style="font-size:6.75px; font-family:Arial;" text-anchor="middle"><textPath startOffset="22.20632615414155" xlink:href="#id92">August</textPath></text><line stroke="#e1ed5e" stroke-width="0.3" x1="26.63291911575756" x2="22.317208475507996" y1="142.92168965132927" y2="145.44649492493687" /><path d="M 25.769776987707644 143.4266507060508 a86.0,86.0 0 0,1 -11.730757126820373,-40.83630448921669" fill="none" id="id93" stroke="none" /><text fill="#e1ed5e" style="font-size:6.75px; font-family:Arial;" text-anchor="middle"><textPath startOffset="21.46611528233685" xlink:href="#id93">September</textPath></text><line stroke="#e1ed5e" stroke-width="0.3" x1="15.007084014347285" x2="10.007500721073583" y1="101.09737516637583" y2="101.16192664675087" /><path d="M 14.007167355692545 101.11028546245083 a86.0,86.0 0 0,1 10.666146001902534,-42.60595125391555" fill="none" id="id94" stroke="none" /><text fill="#e1ed5e" style="font-size:6.75px; font-family:Arial;" text-anchor="middle"><textPath startOffset="22.20632615414155" xlink:href="#id94">October</textPath></text><line stroke="#e1ed5e" stroke-width="0.3" x1="26.266209847984243" x2="21.928928074336255" y1="57.711370442889674" y2="55.22380399835377" /><path d="M 25.398753493254645 57.213857153982495 a86.0,86.0 0 0,1 29.58750427330803,-30.492523968695096" fill="none" id="id95" stroke="none" /><text fill="#e1ed5e" style="font-size:6.75px; font-family:Arial;" text-anchor="middle"><textPath startOffset="21.46611528233685" xlink:href="#id95">November</textPath></text><line stroke="#e1ed5e" stroke-width="0.3" x1="56.762969772571076" x2="54.21961505331055" y1="26.818313649435495" y2="22.513508569990535" /><path d="M 56.25429882871897 25.957352633546506 a86.0,86.0 0 0,1 42.265352541879196,-11.944610805530505" fill="none" id="id96" stroke="none" /><text fill="#e1ed5e" style="font-size:6.75px; font-family:Arial;" text-anchor="middle"><textPath startOffset="22.20632615414155" xlink:href="#id96">December</textPath></text></svg>