<?xml version="1.0" encoding="utf-8" ?>
<svg baseProfile="full" height="200mm" version="1.1" viewBox="0,0,200,200" width="200mm" xmlns="http://www.w3.org/2000/svg" xmlns:ev="http://www.w3.org/2001/xml-events" xmlns:xlink="http://www.w3.org/1999/xlink"><defs /><rect fill="#1a1a1a" height="200" width="200" x="0" y="0" /><text alignment-baseline="middle" fill="#e1ed5e" style="dominant-baseline: central; font-size:9.0px; font-family:Arial;" text-anchor="middle" x="100.0" y="100.0">2019</text><line stroke="#e1ed5e" stroke-width="0.3" x1="100.0" x2="100.0" y1="15.0" y2="10.0" /><path d="M 100.0 14.0 a86.0,86.0 0 0,1 42.46469731375804,11.215312516191453" fill="none" id="id37" stroke="none" /><text fill="#e1ed5e" style="font-size:6.75px; font-family:Arial;" text-anchor="middle"><textPath startOffset="22.20632615414155" xlink:href="#id37">January</textPath></text><line stroke="#e1ed5e" stroke-width="0.3" x1="143.23703022742887" x2="145.7803849466894" y1="26.81831364943548" y2="22.513508569990506" /><path d="M 143.74570117128098 25.957352633546492 a86.0,86.0 0 0,1 28.547481713284135,27.462654790039103" fill="none" id="id38" stroke="none" /><text fill="#e1ed5e" style="font-size:6.75px; font-family:Arial;" text-anchor="middle"><textPath startOffset="19.985693538727396" xlink:href="#id38">February</textPath></text><line stroke="#e1ed5e" stroke-width="0.3" x1="172.23445277983987" x2="176.4835382374775" y1="55.19839476539836" y2="52.563006222186495" /><path d="M 173.08426987136738 54.67131705675599 a86.0,86.0 0 0,1 12.851231095245387,41.99856678651699" fill="none" id="id39" stroke="none" /><text fill="#e1ed5e" style="font-size:6.75px; font-family:Arial;" text-anchor="middle"><textPath startOffset="22.20632615414155" xlink:href="#id39">March</textPath></text><line stroke="#e1ed5e" stroke-width="0.3" x1="184.98032266829074" x2="189.97916517819016" y1="98.17113171792111" y2="98.06355123074" /><path d="M 185.9800911702706 98.14961562048488 a86.0,86.0 0 0,1 -9.607161424134198,41.387399972396054" fill="none" id="id40" stroke="none" /><text fill="#e1ed5e" style="font-size:6.75px; font-family:Arial;" text-anchor="middle"><textPath startOffset="21.466115282336823" xlink:href="#id40">April</textPath></text><path d="M 120.5718875245553 104.21870165774334 l 7.3451031841302825 1.5062691229572105 a28.49795888600992,28.49795888600992 0 0,0 -0.10268216445243998,0.4796968876690806 l -7.3180869809533995 -1.6324798300424601" fill="#ff3404" stroke="none" /><path d="M 120.02730092923936 106.31721596034902 l 20.499262315912848 6.46608684490288 a42.494883916467906,42.494883916467906 0 0,0 -0.22604799169688192,0.6957041826570268 l -20.384922073199718 -6.8179899275377025" fill="#fff617" stroke="none" /><path d="M 119.79798401119884 107.00284435728193 l 13.801702344523033 4.881869453453269 a35.63965972853784,35.63965972853784 0 0,0 -0.20955396773826052,0.576602519367743 l -13.715624115779546 -5.118719769827143" fill="#ff9b0e" stroke="none" /><line stroke="#e1ed5e" stroke-width="0.3" x1="174.80103733775053" x2="179.2010983576182" y1="140.37084112569926" y2="142.7455964860345" /><path d="M 175.68104954172406 140.8457921977663 a86.0,86.0 0 0,1 -30.038265399797805,32.042727171017184" fill="none" id="id41" stroke="none" /><text fill="#e1ed5e" style="font-size:6.75px; font-family:Arial;" text-anchor="middle"><textPath startOffset="22.206326154141568" xlink:href="#id41">May</textPath></text><path d="M 118.48025628344425 109.97397251340804 l 35.33888807404462 19.07273865139457 a61.157270449748616,61.157270449748616 0 0,0 -0.507965271428107,0.9221045161290067 l -35.005346393165 -19.67821368592138" fill="#31ff2f" stroke="none" /><path d="M 118.30583269289576 110.29060199501025 l 8.497572750394745 4.776900377325807 a30.748205981776685,30.748205981776685 0 0,0 -0.2633334984627619,0.45914415101646716 l -8.414087255779604 -4.922464374200589" fill="#ff5507" stroke="none" /><path d="M 117.94076556474637 110.91462005526583 l 17.127601912486973 10.419915842386319 a41.04817681074867,41.04817681074867 0 0,0 -0.37243472188615084,0.6004833574775666 l -16.945702550932857 -10.71319553122916" fill="#ffe315" stroke="none" /><path d="M 116.0416608686014 113.55231037782055 l 17.080995443555867 14.430360653384769 a43.36058393534327,43.36058393534327 0 0,0 -0.48658316160707626,0.5660061452574451 l -16.83006977237801 -14.722243897803741" fill="#fdff18" stroke="none" /><path d="M 112.04921762599082 117.19931262002967 l 9.812378593964029 14.006400433803826 a38.101521183314176,38.101521183314176 0 0,0 -0.5403940842783572,0.3716879787429946 l -9.56982762506279 -14.173229201911914" fill="#ffbc11" stroke="none" /><line stroke="#e1ed5e" stroke-width="0.3" x1="143.8653032363475" x2="146.44561519142675" y1="172.8068346515853" y2="177.08958963109032" /><path d="M 144.38136562736335 173.6633856474863 a86.0,86.0 0 0,1 -40.68145358897372,12.25698825130547" fill="none" id="id42" stroke="none" /><text fill="#e1ed5e" style="font-size:6.75px; font-family:Arial;" text-anchor="middle"><textPath startOffset="21.466115282336833" xlink:href="#id42">June</textPath></text><path d="M 110.21172684928248 118.3499491758327 l 4.407214281398211 7.919537925786131 a30.063256516292874,30.063256516292874 0 0,0 -0.45435199139107413,0.24774893231849893 l -4.270239478138488 -7.9942275098644" fill="#ff4b07" stroke="none" /><path d="M 107.59598834532513 119.57807347666477 l 4.579881628899189 11.804291287545094 a33.66161950683803,33.66161950683803 0 0,0 -0.5419998082237509,0.204937950390191 l -4.376011599915164 -11.881377488041917" fill="#ff7f0b" stroke="none" /><path d="M 104.13013068566511 120.58985236759428 l 2.395149083845638 11.940485613669795 a33.17833879575133,33.17833879575133 0 0,0 -0.56092308415256,0.10750224408603012 l -2.1892583851213736 -11.979945056104293" fill="#ff780b" stroke="none" /><path d="M 103.7750983002368 120.6578951692458 l 2.1722345878548315 11.886788324452388 a33.08363934313709,33.08363934313709 0 0,0 -0.561084389500287,0.09755171313454351 l -1.9673012268824945 -11.922418616107938" fill="#ff770a" stroke="none" /><path d="M 103.41894727170886 120.7198165907248 l 2.310592232946712 14.00286213208553 a35.19221562537536,35.19221562537536 0 0,0 -0.5985427286447638,0.0934800645613843 l -2.0692136406934307 -14.04056050399402" fill="#ff940d" stroke="none" /><line stroke="#e1ed5e" stroke-width="0.3" x1="102.19456741930631" x2="102.32365962044197" y1="184.97166512339345" y2="189.96999836594603" /><path d="M 102.22038585953345 185.97133177190398 a86.0,86.0 0 0,1 -42.740103519485714,-10.115201625700543" fill="none" id="id43" stroke="none" /><text fill="#e1ed5e" style="font-size:6.75px; font-family:Arial;" text-anchor="middle"><textPath startOffset="22.20632615414155" xlink:href="#id43">July</textPath></text><path d="M 100.18074693466247 120.99922214144158 l 0.06049441136648081 7.028255195435416 a28.02851553786228,28.02851553786228 0 0,0 -0.48248269205786765,0.0 l 0.06049441136647597 -7.028255195435416" fill="#ff2d04" stroke="none" /><path d="M 99.45781275523022 120.99299961872073 l -0.10510116970185922 4.069422209323821 a25.070779209636733,25.070779209636733 0 0,0 -0.4313124902904871,-0.014855274253352715 l 0.1751340116669894 -4.067010136644374" fill="#ff0000" stroke="none" /><path d="M 95.86986931433489 120.58985236759428 l -3.7970172230326455 18.92918893118878 a40.306256327539174,40.306256327539174 0 0,0 -0.6790808403094841,-0.14230799266619218 l 4.122289524771516 -18.861024957796047" fill="#ffda14" stroke="none" /><line stroke="#e1ed5e" stroke-width="0.3" x1="58.666819895761336" x2="56.23545636021788" y1="174.27360380694188" y2="178.64263932499728" /><path d="M 58.180547188652646 175.14741091055294 a86.0,86.0 0 0,1 -31.652253787137756,-30.449443065178592" fill="none" id="id44" stroke="none" /><text fill="#e1ed5e" style="font-size:6.75px; font-family:Arial;" text-anchor="middle"><textPath startOffset="22.20632615414155" xlink:href="#id44">August</textPath></text><line stroke="#e1ed5e" stroke-width="0.3" x1="26.63291911575756" x2="22.317208475507996" y1="142.92168965132927" y2="145.44649492493687" /><path d="M 25.769776987707644 143.4266507060508 a86.0,86.0 0 0,1 -11.730757126820373,-40.83630448921669" fill="none" id="id45" stroke="none" /><text fill="#e1ed5e" style="font-size:6.75px; font-family:Arial;" text-anchor="middle"><textPath startOffset="21.46611528233685" xlink:href="#id45">September</textPath></text><path d="M 81.87401531095188 110.60418214915194 l -15.847398776363928 9.271148911228368 a39.360126636580475,39.360126636580475 0 0,0 -0.3370876288942212,-0.5877406941778792 l 16.004638401410524 -8.996988371192181" fill="#ffcd13" stroke="none" /><line stroke="#e1ed5e" stroke-width="0.3" x1="15.007084014347285" x2="10.007500721073583" y1="101.09737516637583" y2="101.16192664675087" /><path d="M 14.007167355692545 101.11028546245083 a86.0,86.0 0 0,1 10.666146001902534,-42.60595125391555" fill="none" id="id46" stroke="none" /><text fill="#e1ed5e" style="font-size:6.75px; font-family:Arial;" text-anchor="middle"><textPath startOffset="22.20632615414155" xlink:href="#id46">October</textPath></text><path d="M 79.00175016825051 100.2711162175752 l -62.994749495248485 0.8133486527256131 a84.0,84.0 0 0,0 -0.006222810841987947,-1.4459620871852985 l 62.99941660337998 0.27112291266336075" fill="#4dd2ff" stroke="none" /><path d="M 79.00019446554 99.90962569577889 l -57.10886250705008 -0.2457724527717628 a78.10939135508005,78.10939135508005 0 0,0 0.017358855880653765,-1.3444625180869645 l 57.09617064405171 1.2287712289191992" fill="#45fff2" stroke="none" /><path d="M 79.01574976396665 99.18683210126434 l -19.088530974057676 -0.7397062295545269 a40.10285790277468,40.10285790277468 0 0,0 0.03266739039243772,-0.6895569800651249 l 19.07296997543174 1.068174316242661" fill="#ffd714" stroke="none" /><line stroke="#e1ed5e" stroke-width="0.3" x1="26.266209847984243" x2="21.928928074336255" y1="57.711370442889674" y2="55.22380399835377" /><path d="M 25.398753493254645 57.213857153982495 a86.0,86.0 0 0,1 29.58750427330803,-30.492523968695096" fill="none" id="id47" stroke="none" /><text fill="#e1ed5e" style="font-size:6.75px; font-family:Arial;" text-anchor="middle"><textPath startOffset="21.46611528233685" xlink:href="#id47">November</textPath></text><line stroke="#e1ed5e" stroke-width="0.3" x1="56.762969772571076" x2="54.21961505331055" y1="26.818313649435495" y2="22.513508569990535" /><path d="M 56.25429882871897 25.957352633546506 a86.0,86.0 0 0,1 42.265352541879196,-11.944610805530505" fill="none" id="id48" stroke="none" /><text fill="#e1ed5e" style="font-size:6.75px; font-family:Arial;" text-anchor="middle"><textPath startOffset="22.20632615414155" xlink:href="#id48">December</textPath></text></svg>